<svg xmlns="http://www.w3.org/2000/svg" width="30.217" height="15.108" viewBox="0 0 30.217 15.108">
  <g id="_130918" data-name="130918" transform="translate(0 -96.243)">
    <g id="Menu_1_" transform="translate(0 96.243)">
      <path id="Path_3" data-name="Path 3" d="M.944,98.132H29.273a.944.944,0,0,0,0-1.889H.944a.944.944,0,0,0,0,1.889Z" transform="translate(0 -96.243)" fill="#6e5527"/>
      <path id="Path_4" data-name="Path 4" d="M29.273,180.455H.944a.944.944,0,0,0,0,1.889H29.273a.944.944,0,0,0,0-1.889Z" transform="translate(0 -173.845)" fill="#6e5527"/>
      <path id="Path_5" data-name="Path 5" d="M140.133,264.667H121.247a.944.944,0,0,0,0,1.889h18.886a.944.944,0,1,0,0-1.889Z" transform="translate(-110.86 -251.447)" fill="#6e5527"/>
    </g>
  </g>
</svg>
